{
	"asset": {
		"generator": "Khronos glTF Blender I/O v3.2.40",
		"version": "2.0"
	},
	"scene": 0,
	"scenes": [
		{
			"name": "Scene",
			"nodes": [0]
		}
	],
	"nodes": [
		{
			"mesh": 0,
			"name": "Tropical Wave"
		}
	],
	"materials": [
		{
			"doubleSided": true,
			"name": "concrete",
			"normalTexture": {
				"index": 0
			},
			"pbrMetallicRoughness": {
				"baseColorTexture": {
					"index": 1
				},
				"metallicFactor": 0,
				"metallicRoughnessTexture": {
					"index": 2
				}
			}
		}
	],
	"meshes": [
		{
			"name": "Cube",
			"primitives": [
				{
					"attributes": {
						"POSITION": 0,
						"NORMAL": 1,
						"TEXCOORD_0": 2
					},
					"indices": 3,
					"material": 0
				}
			]
		}
	],
	"textures": [
		{
			"sampler": 0,
			"source": 0
		},
		{
			"sampler": 0,
			"source": 1
		},
		{
			"sampler": 0,
			"source": 2
		}
	],
	"images": [
		{
			"mimeType": "image/png",
			"name": "concrete_normal",
			"uri": "../textures/concrete_normal.png"
		},
		{
			"mimeType": "image/png",
			"name": "concrete_sunset_clay",
			"uri": "../textures/concrete_sunset_clay.png"
		},
		{
			"mimeType": "image/png",
			"name": "concrete_roughness",
			"uri": "../textures/concrete_roughness.png"
		}
	],
	"accessors": [
		{
			"bufferView": 0,
			"componentType": 5126,
			"count": 1058,
			"max": [0.06547580659389496, 0.038100000470876694, 0.12550115585327148],
			"min": [-0.0679607018828392, -0.038100000470876694, -0.12803936004638672],
			"type": "VEC3"
		},
		{
			"bufferView": 1,
			"componentType": 5126,
			"count": 1058,
			"type": "VEC3"
		},
		{
			"bufferView": 2,
			"componentType": 5126,
			"count": 1058,
			"type": "VEC2"
		},
		{
			"bufferView": 3,
			"componentType": 5123,
			"count": 3228,
			"type": "SCALAR"
		}
	],
	"bufferViews": [
		{
			"buffer": 0,
			"byteLength": 12696,
			"byteOffset": 0
		},
		{
			"buffer": 0,
			"byteLength": 12696,
			"byteOffset": 12696
		},
		{
			"buffer": 0,
			"byteLength": 8464,
			"byteOffset": 25392
		},
		{
			"buffer": 0,
			"byteLength": 6456,
			"byteOffset": 33856
		}
	],
	"samplers": [
		{
			"magFilter": 9729,
			"minFilter": 9987
		}
	],
	"buffers": [
		{
			"byteLength": 40312,
			"uri": "../bin/tropical_wave.bin"
		}
	]
}
