{
	"asset": {
		"generator": "Khronos glTF Blender I/O v3.2.40",
		"version": "2.0"
	},
	"scene": 0,
	"scenes": [
		{
			"name": "Scene",
			"nodes": [0]
		}
	],
	"nodes": [
		{
			"mesh": 0,
			"name": "model",
			"translation": [0, 0, 0]
		}
	],
	"materials": [
		{
			"doubleSided": true,
			"name": "concrete",
			"normalTexture": {
				"index": 0
			},
			"pbrMetallicRoughness": {
				"baseColorTexture": {
					"index": 1
				},
				"metallicFactor": 0,
				"metallicRoughnessTexture": {
					"index": 2
				}
			}
		}
	],
	"meshes": [
		{
			"name": "model",
			"primitives": [
				{
					"attributes": {
						"POSITION": 0,
						"NORMAL": 1,
						"TEXCOORD_0": 2
					},
					"indices": 3,
					"material": 0
				}
			]
		}
	],
	"textures": [
		{
			"sampler": 0,
			"source": 0
		},
		{
			"sampler": 0,
			"source": 1
		},
		{
			"sampler": 0,
			"source": 2
		}
	],
	"images": [
		{
			"mimeType": "image/png",
			"name": "concrete_normal",
			"uri": "../textures/concrete_normal.png"
		},
		{
			"mimeType": "image/png",
			"name": "concrete_green",
			"uri": "../textures/concrete_green.png"
		},
		{
			"mimeType": "image/png",
			"name": "concrete_roughness",
			"uri": "../textures/concrete_roughness.png"
		}
	],
	"accessors": [
		{
			"bufferView": 0,
			"componentType": 5126,
			"count": 230,
			"max": [0.0492125004529953, 0.030162500217556953, 0.10001248866319656],
			"min": [-0.0492125004529953, -0.030162500217556953, -0.10001248866319656],
			"type": "VEC3"
		},
		{
			"bufferView": 1,
			"componentType": 5126,
			"count": 230,
			"type": "VEC3"
		},
		{
			"bufferView": 2,
			"componentType": 5126,
			"count": 230,
			"type": "VEC2"
		},
		{
			"bufferView": 3,
			"componentType": 5123,
			"count": 756,
			"type": "SCALAR"
		}
	],
	"bufferViews": [
		{
			"buffer": 0,
			"byteLength": 2760,
			"byteOffset": 0
		},
		{
			"buffer": 0,
			"byteLength": 2760,
			"byteOffset": 2760
		},
		{
			"buffer": 0,
			"byteLength": 1840,
			"byteOffset": 5520
		},
		{
			"buffer": 0,
			"byteLength": 1512,
			"byteOffset": 7360
		}
	],
	"samplers": [
		{
			"magFilter": 9729,
			"minFilter": 9987
		}
	],
	"buffers": [
		{
			"byteLength": 8872,
			"uri": "../bin/colonial_classic.bin"
		}
	]
}
