{
	"asset": {
		"generator": "Khronos glTF Blender I/O v3.2.40",
		"version": "2.0"
	},
	"scene": 0,
	"scenes": [
		{
			"name": "Scene",
			"nodes": [0]
		}
	],
	"nodes": [
		{
			"mesh": 0,
			"name": "Cobble Mix Dobule"
		}
	],
	"materials": [
		{
			"doubleSided": true,
			"name": "concrete",
			"normalTexture": {
				"index": 0
			},
			"pbrMetallicRoughness": {
				"baseColorTexture": {
					"index": 1
				},
				"metallicFactor": 0,
				"metallicRoughnessTexture": {
					"index": 2
				}
			}
		}
	],
	"meshes": [
		{
			"name": "Cobble Mix Double",
			"primitives": [
				{
					"attributes": {
						"POSITION": 0,
						"NORMAL": 1,
						"TEXCOORD_0": 2
					},
					"indices": 3,
					"material": 0
				}
			]
		}
	],
	"textures": [
		{
			"sampler": 0,
			"source": 0
		},
		{
			"sampler": 0,
			"source": 1
		},
		{
			"sampler": 0,
			"source": 2
		}
	],
	"images": [
		{
			"mimeType": "image/png",
			"name": "concrete_normal",
			"uri": "../../textures/concrete_normal.png"
		},
		{
			"mimeType": "image/png",
			"name": "concrete_charcoal",
			"uri": "../../textures/concrete_charcoal.png"
		},
		{
			"mimeType": "image/png",
			"name": "concrete_roughness",
			"uri": "../../textures/concrete_roughness.png"
		}
	],
	"accessors": [
		{
			"bufferView": 0,
			"componentType": 5126,
			"count": 544,
			"max": [0.08889999985694885, 0.030162502080202103, 0.12065000087022781],
			"min": [
				-0.08889999985694885, -0.030162500217556953, -0.12065000087022781
			],
			"type": "VEC3"
		},
		{
			"bufferView": 1,
			"componentType": 5126,
			"count": 544,
			"type": "VEC3"
		},
		{
			"bufferView": 2,
			"componentType": 5126,
			"count": 544,
			"type": "VEC2"
		},
		{
			"bufferView": 3,
			"componentType": 5123,
			"count": 1932,
			"type": "SCALAR"
		}
	],
	"bufferViews": [
		{
			"buffer": 0,
			"byteLength": 6528,
			"byteOffset": 0
		},
		{
			"buffer": 0,
			"byteLength": 6528,
			"byteOffset": 6528
		},
		{
			"buffer": 0,
			"byteLength": 4352,
			"byteOffset": 13056
		},
		{
			"buffer": 0,
			"byteLength": 3864,
			"byteOffset": 17408
		}
	],
	"samplers": [
		{
			"magFilter": 9729,
			"minFilter": 9987
		}
	],
	"buffers": [
		{
			"byteLength": 21272,
			"uri": "../../bin/cobble_mix/double.bin"
		}
	]
}
