<svg width="192" height="192" viewBox="0 0 192 192" fill="none" xmlns="http://www.w3.org/2000/svg">
<g clip-path="url(#clip0_1606_4404)">
<path d="M57 11V-10L51 -16V-37L57 -43H78L84 -37V-16L78 -10V11H57Z" fill="black" fill-opacity="0.03"/>
<path d="M28 39V18L22 12V-9L28 -15H49L55 -9V12L49 18V39H28Z" fill="black" fill-opacity="0.07"/>
<path d="M-1 67V46L-7 40V19L-1 13H20L26 19V40L20 46V67H-1Z" fill="black" fill-opacity="0.03"/>
<path d="M115 11V-10L109 -16V-37L115 -43H136L142 -37V-16L136 -10V11H115Z" fill="black" fill-opacity="0.03"/>
<path d="M86 39V18L80 12V-9L86 -15H107L113 -9V12L107 18V39H86Z" fill="black" fill-opacity="0.05"/>
<path d="M57 67V46L51 40V19L57 13H78L84 19V40L78 46V67H57Z" fill="black" fill-opacity="0.03"/>
<path d="M-1 11V-10L-7 -16V-37L-1 -43H20L26 -37V-16L20 -10V11H-1Z" fill="black" fill-opacity="0.03"/>
<path d="M28 95V74L22 68V47L28 41H49L55 47V68L49 74V95H28Z" fill="black" fill-opacity="0.05"/>
<path d="M-1 123V102L-7 96V75L-1 69H20L26 75V96L20 102V123H-1Z" fill="black" fill-opacity="0.03"/>
<path d="M144 39V18L138 12V-9L144 -15H165L171 -9V12L165 18V39H144Z" fill="black" fill-opacity="0.03"/>
<path d="M115 67V46L109 40V19L115 13H136L142 19V40L136 46V67H115Z" fill="black" fill-opacity="0.03"/>
<path d="M86 95V74L80 68V47L86 41H107L113 47V68L107 74V95H86Z" fill="black" fill-opacity="0.03"/>
<path d="M57 123V102L51 96V75L57 69H78L84 75V96L78 102V123H57Z" fill="black" fill-opacity="0.03"/>
<path d="M28 207V186L22 180V159L28 153H49L55 159V180L49 186V207H28Z" fill="black" fill-opacity="0.05"/>
<path d="M-1 235V214L-7 208V187L-1 181H20L26 187V208L20 214V235H-1Z" fill="black" fill-opacity="0.05"/>
<path d="M-1 179V158L-7 152V131L-1 125H20L26 131V152L20 158V179H-1Z" fill="black" fill-opacity="0.03"/>
<path d="M173 67V46L167 40V19L173 13H194L200 19V40L194 46V67H173Z" fill="black" fill-opacity="0.03"/>
<path d="M144 95V74L138 68V47L144 41H165L171 47V68L165 74V95H144Z" fill="black" fill-opacity="0.03"/>
<path d="M173 11V-10L167 -16V-37L173 -43H194L200 -37V-16L194 -10V11H173Z" fill="black" fill-opacity="0.03"/>
<path d="M115 123V102L109 96V75L115 69H136L142 75V96L136 102V123H115Z" fill="black" fill-opacity="0.07"/>
<path d="M86 151V130L80 124V103L86 97H107L113 103V124L107 130V151H86Z" fill="black" fill-opacity="0.03"/>
<path d="M57 179V158L51 152V131L57 125H78L84 131V152L78 158V179H57Z" fill="black" fill-opacity="0.03"/>
<path d="M28 151V130L22 124V103L28 97H49L55 103V124L49 130V151H28Z" fill="black" fill-opacity="0.03"/>
<path d="M173 123V102L167 96V75L173 69H194L200 75V96L194 102V123H173Z" fill="black" fill-opacity="0.05"/>
<path d="M144 151V130L138 124V103L144 97H165L171 103V124L165 130V151H144Z" fill="black" fill-opacity="0.03"/>
<path d="M173 179V158L167 152V131L173 125H194L200 131V152L194 158V179H173Z" fill="black" fill-opacity="0.03"/>
<path d="M115 179V158L109 152V131L115 125H136L142 131V152L136 158V179H115Z" fill="black" fill-opacity="0.05"/>
<path d="M173 235V214L167 208V187L173 181H194L200 187V208L194 214V235H173Z" fill="black" fill-opacity="0.05"/>
<path d="M144 207V186L138 180V159L144 153H165L171 159V180L165 186V207H144Z" fill="black" fill-opacity="0.03"/>
<path d="M86 207V186L80 180V159L86 153H107L113 159V180L107 186V207H86Z" fill="black" fill-opacity="0.07"/>
<path d="M115 235V214L109 208V187L115 181H136L142 187V208L136 214V235H115Z" fill="black" fill-opacity="0.03"/>
<path d="M57 235V214L51 208V187L57 181H78L84 187V208L78 214V235H57Z" fill="black" fill-opacity="0.03"/>
</g>
<defs>
<clipPath id="clip0_1606_4404">
<rect width="192" height="192" fill="white"/>
</clipPath>
</defs>
</svg>
