<svg width="24" height="24" viewBox="0 0 24 24" fill="none" xmlns="http://www.w3.org/2000/svg">
<g id="shopping_cart">
<mask id="mask0_1209_3790" style="mask-type:alpha" maskUnits="userSpaceOnUse" x="0" y="0" width="24" height="24">
<rect id="Bounding box" width="24" height="24" fill="#D9D9D9"/>
</mask>
<g mask="url(#mask0_1209_3790)">
<path id="shopping_cart_2" d="M7.15385 21.5576C6.66797 21.5576 6.25483 21.3874 5.91445 21.0471C5.57407 20.7067 5.40387 20.2936 5.40387 19.8077C5.40387 19.3218 5.57407 18.9086 5.91445 18.5683C6.25483 18.2279 6.66797 18.0577 7.15385 18.0577C7.63975 18.0577 8.05289 18.2279 8.39327 18.5683C8.73366 18.9086 8.90385 19.3218 8.90385 19.8077C8.90385 20.2936 8.73366 20.7067 8.39327 21.0471C8.05289 21.3874 7.63975 21.5576 7.15385 21.5576ZM16.8462 21.5576C16.3603 21.5576 15.9471 21.3874 15.6067 21.0471C15.2663 20.7067 15.0962 20.2936 15.0962 19.8077C15.0962 19.3218 15.2663 18.9086 15.6067 18.5683C15.9471 18.2279 16.3603 18.0577 16.8462 18.0577C17.332 18.0577 17.7452 18.2279 18.0856 18.5683C18.4259 18.9086 18.5961 19.3218 18.5961 19.8077C18.5961 20.2936 18.4259 20.7067 18.0856 21.0471C17.7452 21.3874 17.332 21.5576 16.8462 21.5576ZM6.01538 5.74998L8.55 11.0577H15.3673C15.425 11.0577 15.4763 11.0433 15.5212 11.0144C15.566 10.9856 15.6045 10.9455 15.6365 10.8942L18.3192 6.0192C18.3577 5.94868 18.3609 5.88618 18.3288 5.8317C18.2968 5.7772 18.2423 5.74995 18.1654 5.74995L6.01538 5.74998ZM5.29615 4.25003H19.1807C19.5897 4.25003 19.899 4.42406 20.1086 4.77213C20.3182 5.12021 20.3282 5.47566 20.1384 5.83847L16.9346 11.6423C16.7705 11.9307 16.5535 12.1554 16.2836 12.3163C16.0138 12.4772 15.7179 12.5576 15.3962 12.5576H8.1L6.9423 14.673C6.89102 14.75 6.88942 14.8333 6.9375 14.9231C6.98558 15.0128 7.0577 15.0577 7.15385 15.0577H18.5961V16.5576H7.15385C6.4872 16.5576 5.98624 16.2701 5.65097 15.6952C5.31572 15.1202 5.30387 14.5461 5.6154 13.9731L7.04235 11.4077L3.40387 3.74995H1.50002V2.25H4.34615L5.29615 4.25003Z" fill="#1C1B1F"/>
</g>
</g>
</svg>
