<svg width="143" height="36" viewBox="0 0 143 36" fill="none" xmlns="http://www.w3.org/2000/svg">
<path d="M20.0817 11.7856C20.3014 11.7856 20.5127 11.87 20.672 12.0213L23.0903 14.3179C23.2607 14.4797 23.3571 14.7044 23.3571 14.9394V20.9388C23.3571 21.1584 23.2728 21.3697 23.1215 21.529L20.8249 23.9473C20.6631 24.1177 20.4384 24.2142 20.2034 24.2142H14.204C13.9843 24.2142 13.773 24.1299 13.6138 23.9786L11.1955 21.682C11.0251 21.5201 10.9286 21.2954 10.9286 21.0604V15.0611C10.9286 14.8414 11.0129 14.6301 11.1642 14.4708L13.4608 12.0525C13.6227 11.8821 13.8473 11.7856 14.0823 11.7856L20.0817 11.7856Z" fill="white"/>
<path fill-rule="evenodd" clip-rule="evenodd" d="M19.7143 25.3572C20.1877 25.3572 20.5714 25.741 20.5714 26.2144V31.5001C20.5714 31.9735 20.1877 32.3573 19.7143 32.3573H13.8619H13.7443C13.5185 32.3573 13.3017 32.4464 13.1412 32.6053L13.0577 32.688L10.8289 34.8949C10.6684 35.0538 10.4517 35.143 10.2258 35.143H2.49322C2.26735 35.143 2.05062 35.0538 1.89013 34.8949L0.254102 33.275C0.0915225 33.114 5.02425e-05 32.8947 4.88413e-05 32.6659L2.18968e-06 25.0486C7.88403e-07 24.8198 0.0914754 24.6005 0.254061 24.4395L1.89012 22.8196C2.05061 22.6607 2.26735 22.5715 2.4932 22.5715H10.2258C10.4517 22.5715 10.6684 22.6607 10.8289 22.8196L13.0577 25.0265L13.1412 25.1092C13.3017 25.2681 13.5185 25.3572 13.7443 25.3572H13.8619H19.7143ZM24.1914 35.143C23.9626 35.143 23.7433 35.0515 23.5823 34.8889L21.9623 33.2528C21.8034 33.0923 21.7143 32.8756 21.7143 32.6498V32.3573V25.3572L21.7143 24.9171C21.7143 24.6913 21.8034 24.4745 21.9623 24.314L24.1692 22.0852L24.2519 22.0017C24.4109 21.8412 24.5 21.6245 24.5 21.3986V21.2811V15.4287C24.5 14.9553 24.8838 14.5715 25.3571 14.5715L30.6429 14.5715C31.1162 14.5715 31.5 14.9553 31.5 15.4287V21.2811V21.3986C31.5 21.6245 31.5891 21.8412 31.7481 22.0017L31.8308 22.0852L34.0376 24.314C34.1966 24.4745 34.2857 24.6913 34.2857 24.9171V32.6497C34.2857 32.8756 34.1966 33.0923 34.0376 33.2528L32.4177 34.8889C32.2567 35.0514 32.0374 35.1429 31.8086 35.1429L24.1914 35.143ZM20.4239 3.64289L14.5714 3.64289C14.098 3.64289 13.7143 4.02665 13.7143 4.50003L13.7143 9.78575C13.7143 10.2591 14.098 10.6429 14.5714 10.6429L20.4239 10.6429H20.5414C20.7672 10.6429 20.984 10.732 21.1445 10.891L21.228 10.9736L23.4568 13.1805C23.6173 13.3395 23.834 13.4286 24.0599 13.4286H31.7925C32.0184 13.4286 32.2351 13.3395 32.3956 13.1805L34.0316 11.5606C34.1942 11.3996 34.2857 11.1803 34.2857 10.9515L34.2857 3.33426C34.2857 3.10546 34.1942 2.88616 34.0316 2.72518L32.3956 1.10524C32.2351 0.946325 32.0184 0.857178 31.7925 0.857178H24.0599C23.834 0.857178 23.6173 0.946325 23.4568 1.10524L21.228 3.31214L21.1445 3.39483C20.984 3.55374 20.7672 3.64289 20.5414 3.64289H20.4239ZM10.0943 0.857218C10.3231 0.857217 10.5424 0.948691 10.7034 1.11128L12.3234 2.74733C12.4823 2.90783 12.5714 3.12456 12.5714 3.35042L12.5714 3.64289L12.5714 10.6429L12.5714 11.083C12.5714 11.3089 12.4823 11.5256 12.3234 11.6861L10.1165 13.915L10.0338 13.9985C9.87486 14.159 9.78571 14.3757 9.78571 14.6016V14.7191V20.5715C9.78571 21.0449 9.40196 21.4286 8.92857 21.4286H3.64286C3.16947 21.4286 2.78571 21.0449 2.78571 20.5715V14.7191V14.6016C2.78571 14.3757 2.69657 14.159 2.53765 13.9985L2.45496 13.915L0.248065 11.6861C0.0891473 11.5256 0 11.3089 0 11.0831V3.35043C0 3.12457 0.0891476 2.90784 0.248065 2.74734L1.868 1.11132C2.02899 0.948739 2.24828 0.857267 2.47708 0.857265L10.0943 0.857218Z" fill="white"/>
<path d="M41.652 14V13.1823L43.3646 13.0434H43.7966L45.432 13.1823V14H41.652ZM41.7754 4.52686V3.70914H43.7503V4.66571H43.5343L41.7754 4.52686ZM43.1177 14V3.70914H43.8274L44.0589 8.56914V14H43.1177ZM47.3451 14L43.6886 4.68114H43.38V3.70914H45.0771L48.4097 12.2411H48.132L48.7029 10.6674L51.3257 3.70914H52.1897V4.68114H51.8194L51.2486 6.34743L48.3326 14H47.3451ZM50.2149 14V13.1823L52.0663 13.0434H52.8531L54.828 13.1823V14H50.2149ZM51.5726 14C51.5931 13.4446 51.6034 12.8943 51.6034 12.3491C51.6034 11.7937 51.6034 11.2434 51.6034 10.6983C51.6034 10.1429 51.6034 9.59257 51.6034 9.04743L51.6189 3.70914H53.4086C53.4086 4.23371 53.4034 4.76343 53.3931 5.29829C53.3829 5.82286 53.3777 6.35257 53.3777 6.88743C53.3777 7.412 53.3777 7.94171 53.3777 8.47657V9.23257C53.3777 9.75714 53.3777 10.2869 53.3777 10.8217C53.3777 11.3566 53.3829 11.8863 53.3931 12.4109C53.4034 12.9354 53.4086 13.4651 53.4086 14H51.5726ZM52.6526 4.66571V3.70914H54.8126V4.52686L52.8531 4.66571H52.6526ZM55.9976 14V13.2594L57.6793 13.0743H58.281L59.901 13.2594V14H55.9976ZM57.1238 14C57.1238 13.712 57.1238 13.3777 57.1238 12.9971C57.1341 12.6063 57.1393 12.2103 57.1393 11.8091C57.1393 11.408 57.1393 11.0377 57.1393 10.6983V9.92686C57.1393 9.52571 57.1393 9.176 57.1393 8.87771C57.1393 8.56914 57.1341 8.25029 57.1238 7.92114L55.905 7.844V7.16514L58.4198 6.31657L58.821 6.42457L58.7901 8.41486V10.6983C58.7901 11.0377 58.7901 11.408 58.7901 11.8091C58.8004 12.2103 58.8056 12.6063 58.8056 12.9971C58.8056 13.3777 58.8107 13.712 58.821 14H57.1238ZM57.9261 4.88171C57.6073 4.88171 57.3398 4.77886 57.1238 4.57314C56.9181 4.36743 56.8153 4.11029 56.8153 3.80171C56.8153 3.49314 56.9181 3.24114 57.1238 3.04571C57.3398 2.84 57.6073 2.73714 57.9261 2.73714C58.2347 2.73714 58.4918 2.84 58.6976 3.04571C58.9136 3.24114 59.0216 3.49314 59.0216 3.80171C59.0216 4.11029 58.9136 4.36743 58.6976 4.57314C58.4918 4.77886 58.2347 4.88171 57.9261 4.88171ZM60.9223 14V13.2594L62.6349 13.0743H63.2366L64.9646 13.2594V14H60.9223ZM62.0949 14C62.1051 13.6297 62.1103 13.2646 62.1103 12.9046C62.1206 12.5343 62.1257 12.1691 62.1257 11.8091C62.1257 11.4389 62.1257 11.0686 62.1257 10.6983V4.14114L60.876 3.92514V3.27714L63.4063 2.69086L63.8074 2.768L63.7611 4.82V10.6983C63.7611 11.0686 63.7611 11.4389 63.7611 11.8091C63.7714 12.1691 63.7766 12.5343 63.7766 12.9046C63.7869 13.2646 63.792 13.6297 63.792 14H62.0949ZM65.9547 14V13.2594L67.6672 13.0743H68.2689L69.9969 13.2594V14H65.9547ZM67.1272 14C67.1375 13.6297 67.1427 13.2646 67.1427 12.9046C67.1529 12.5343 67.1581 12.1691 67.1581 11.8091C67.1581 11.4389 67.1581 11.0686 67.1581 10.6983V4.14114L65.9084 3.92514V3.27714L68.4387 2.69086L68.8398 2.768L68.7935 4.82V10.6983C68.7935 11.0686 68.7935 11.4389 68.7935 11.8091C68.8038 12.1691 68.8089 12.5343 68.8089 12.9046C68.8192 13.2646 68.8244 13.6297 68.8244 14H67.1272ZM74.9213 14.2006C74.1499 14.2006 73.4813 14.0463 72.9156 13.7377C72.3499 13.4291 71.9127 12.9869 71.6042 12.4109C71.3059 11.8246 71.1567 11.1251 71.1567 10.3126C71.1567 9.51029 71.3162 8.80571 71.635 8.19886C71.9539 7.58171 72.391 7.10343 72.9464 6.764C73.5122 6.42457 74.1447 6.25486 74.8442 6.25486C75.4716 6.25486 76.0167 6.37829 76.4796 6.62514C76.9527 6.872 77.3179 7.22686 77.575 7.68971C77.8424 8.14229 77.9762 8.68743 77.9762 9.32514C77.9762 9.51029 77.9659 9.69029 77.9453 9.86514C77.9247 10.04 77.899 10.1891 77.8682 10.3126H72.0979V9.572H75.7853C76.0424 9.51029 76.2122 9.41257 76.2944 9.27886C76.3767 9.13486 76.4179 8.96 76.4179 8.75429C76.4179 8.37371 76.351 8.06 76.2173 7.81314C76.0939 7.556 75.9139 7.36571 75.6773 7.24229C75.4407 7.10857 75.163 7.04171 74.8442 7.04171C74.4842 7.04171 74.155 7.14971 73.8567 7.36571C73.5584 7.57143 73.3167 7.90057 73.1316 8.35314C72.9567 8.79543 72.8693 9.38171 72.8693 10.112C72.8693 10.7497 72.9722 11.2897 73.1779 11.732C73.3836 12.164 73.6716 12.4931 74.0419 12.7194C74.4224 12.9457 74.8647 13.0589 75.3687 13.0589C75.8727 13.0589 76.2996 12.9714 76.6493 12.7966C76.999 12.6217 77.3127 12.3697 77.5904 12.0406L78.0687 12.4417C77.8527 12.7914 77.6007 13.1 77.3127 13.3674C77.035 13.6349 76.7007 13.8406 76.3099 13.9846C75.9293 14.1286 75.4664 14.2006 74.9213 14.2006ZM79.2914 14V13.2594L80.9732 13.0743H81.5749L83.1486 13.2594V14H79.2914ZM80.4177 14C80.4177 13.712 80.4177 13.3777 80.4177 12.9971C80.428 12.6063 80.4332 12.2103 80.4332 11.8091C80.4434 11.408 80.4486 11.0377 80.4486 10.6983V9.896C80.4486 9.62857 80.4434 9.38686 80.4332 9.17086C80.4332 8.95486 80.428 8.74914 80.4177 8.55371C80.4177 8.348 80.4177 8.13714 80.4177 7.92114L79.1989 7.844V7.16514L81.436 6.31657L81.8372 6.42457L82.0377 8.10629L82.084 8.12171V10.6983C82.084 11.0377 82.084 11.408 82.084 11.8091C82.0943 12.2103 82.0994 12.6063 82.0994 12.9971C82.1097 13.3777 82.1149 13.712 82.1149 14H80.4177ZM84.244 14V13.2594L85.8949 13.0743H86.4812L88.1166 13.2594V14H84.244ZM85.3394 14C85.3394 13.712 85.3394 13.3777 85.3394 12.9971C85.3497 12.6166 85.3549 12.2257 85.3549 11.8246C85.3549 11.4234 85.3549 11.048 85.3549 10.6983V9.21714C85.3549 8.6 85.2572 8.168 85.0617 7.92114C84.8663 7.664 84.5526 7.53543 84.1206 7.53543C83.8737 7.53543 83.6217 7.57657 83.3646 7.65886C83.1177 7.73086 82.8657 7.844 82.6086 7.99829C82.3514 8.15257 82.0892 8.348 81.8217 8.58457L81.7137 7.85943H82.0686C82.2949 7.54057 82.552 7.26286 82.84 7.02629C83.128 6.78971 83.4366 6.60457 83.7657 6.47086C84.1052 6.32686 84.46 6.25486 84.8303 6.25486C85.54 6.25486 86.08 6.476 86.4503 6.91829C86.8206 7.36057 87.0057 8.04971 87.0057 8.98571V10.6983C87.0057 11.048 87.0057 11.4234 87.0057 11.8246C87.0057 12.2257 87.0057 12.6166 87.0057 12.9971C87.016 13.3777 87.0212 13.712 87.0212 14H85.3394ZM89.1302 14V13.2594L90.8119 13.0743H91.4136L92.9873 13.2594V14H89.1302ZM90.2565 14C90.2565 13.712 90.2565 13.3777 90.2565 12.9971C90.2667 12.6063 90.2719 12.2103 90.2719 11.8091C90.2822 11.408 90.2873 11.0377 90.2873 10.6983V9.896C90.2873 9.62857 90.2822 9.38686 90.2719 9.17086C90.2719 8.95486 90.2667 8.74914 90.2565 8.55371C90.2565 8.348 90.2565 8.13714 90.2565 7.92114L89.0376 7.844V7.16514L91.2747 6.31657L91.6759 6.42457L91.8765 8.10629L91.9227 8.12171V10.6983C91.9227 11.0377 91.9227 11.408 91.9227 11.8091C91.933 12.2103 91.9382 12.6063 91.9382 12.9971C91.9485 13.3777 91.9536 13.712 91.9536 14H90.2565ZM94.0827 14V13.2594L95.7336 13.0743H96.3199L97.9553 13.2594V14H94.0827ZM95.1782 14C95.1782 13.712 95.1782 13.3777 95.1782 12.9971C95.1885 12.6166 95.1936 12.2257 95.1936 11.8246C95.1936 11.4234 95.1936 11.048 95.1936 10.6983V9.21714C95.1936 8.6 95.0959 8.168 94.9005 7.92114C94.705 7.664 94.3913 7.53543 93.9593 7.53543C93.7125 7.53543 93.4605 7.57657 93.2033 7.65886C92.9565 7.73086 92.7045 7.844 92.4473 7.99829C92.1902 8.15257 91.9279 8.348 91.6605 8.58457L91.5525 7.85943H91.9073C92.1336 7.54057 92.3907 7.26286 92.6787 7.02629C92.9667 6.78971 93.2753 6.60457 93.6045 6.47086C93.9439 6.32686 94.2987 6.25486 94.669 6.25486C95.3787 6.25486 95.9187 6.476 96.289 6.91829C96.6593 7.36057 96.8445 8.04971 96.8445 8.98571V10.6983C96.8445 11.048 96.8445 11.4234 96.8445 11.8246C96.8445 12.2257 96.8445 12.6166 96.8445 12.9971C96.8547 13.3777 96.8599 13.712 96.8599 14H95.1782ZM98.9535 14V13.2594L100.635 13.0743H101.237L102.857 13.2594V14H98.9535ZM100.08 14C100.08 13.712 100.08 13.3777 100.08 12.9971C100.09 12.6063 100.095 12.2103 100.095 11.8091C100.095 11.408 100.095 11.0377 100.095 10.6983V9.92686C100.095 9.52571 100.095 9.176 100.095 8.87771C100.095 8.56914 100.09 8.25029 100.08 7.92114L98.8609 7.844V7.16514L101.376 6.31657L101.777 6.42457L101.746 8.41486V10.6983C101.746 11.0377 101.746 11.408 101.746 11.8091C101.756 12.2103 101.761 12.6063 101.761 12.9971C101.761 13.3777 101.767 13.712 101.777 14H100.08ZM100.882 4.88171C100.563 4.88171 100.296 4.77886 100.08 4.57314C99.874 4.36743 99.7712 4.11029 99.7712 3.80171C99.7712 3.49314 99.874 3.24114 100.08 3.04571C100.296 2.84 100.563 2.73714 100.882 2.73714C101.191 2.73714 101.448 2.84 101.653 3.04571C101.869 3.24114 101.977 3.49314 101.977 3.80171C101.977 4.11029 101.869 4.36743 101.653 4.57314C101.448 4.77886 101.191 4.88171 100.882 4.88171ZM107.026 14.2006C106.326 14.2006 105.781 13.9897 105.39 13.568C105.01 13.136 104.824 12.4417 104.835 11.4851L104.866 7.16514L105.328 7.67429L103.708 7.33486V6.68686L106.162 6.37829L106.532 6.48629L106.47 8.43029V11.2691C106.47 11.8657 106.573 12.2926 106.779 12.5497C106.984 12.7966 107.293 12.92 107.704 12.92C107.951 12.92 108.203 12.8737 108.46 12.7811C108.728 12.6886 108.99 12.56 109.247 12.3954C109.515 12.2309 109.772 12.0354 110.019 11.8091L110.173 12.5189H109.787C109.551 12.8686 109.288 13.172 109 13.4291C108.712 13.676 108.404 13.8663 108.075 14C107.746 14.1337 107.396 14.2006 107.026 14.2006ZM109.972 14.1389L109.803 12.3646L109.756 12.3491L109.787 7.56629L108.63 7.33486V6.68686L111.052 6.37829L111.423 6.48629L111.392 8.43029V13.0897L112.503 13.3057V14L109.972 14.1389ZM113.599 14V13.2594L115.281 13.0743H115.882L117.456 13.2594V14H113.599ZM114.725 14C114.725 13.712 114.725 13.3777 114.725 12.9971C114.735 12.6063 114.741 12.2103 114.741 11.8091C114.751 11.408 114.756 11.0377 114.756 10.6983V9.896C114.756 9.62857 114.751 9.38686 114.741 9.17086C114.741 8.95486 114.735 8.74914 114.725 8.55371C114.725 8.348 114.725 8.13714 114.725 7.92114L113.506 7.844V7.16514L115.743 6.31657L116.145 6.42457L116.345 8.10629L116.391 8.12171V10.6983C116.391 11.0377 116.391 11.408 116.391 11.8091C116.402 12.2103 116.407 12.6063 116.407 12.9971C116.417 13.3777 116.422 13.712 116.422 14H114.725ZM118.474 14V13.2594L120.11 13.0743H120.711L122.301 13.2594V14H118.474ZM119.554 14C119.565 13.712 119.57 13.3777 119.57 12.9971C119.57 12.6166 119.57 12.2257 119.57 11.8246C119.58 11.4234 119.585 11.048 119.585 10.6983V9.23257C119.585 8.61543 119.493 8.17829 119.307 7.92114C119.122 7.664 118.809 7.53543 118.366 7.53543C118.119 7.53543 117.873 7.57657 117.626 7.65886C117.379 7.74114 117.132 7.86457 116.885 8.02914C116.638 8.18343 116.386 8.36857 116.129 8.58457L115.99 7.90571H116.345C116.571 7.58686 116.823 7.304 117.101 7.05714C117.379 6.81029 117.682 6.61486 118.011 6.47086C118.341 6.32686 118.69 6.25486 119.061 6.25486C119.791 6.25486 120.331 6.476 120.681 6.91829C121.041 7.36057 121.221 8.04971 121.221 8.98571V10.6983C121.221 11.048 121.221 11.4234 121.221 11.8246C121.221 12.2257 121.221 12.6166 121.221 12.9971C121.231 13.3777 121.241 13.712 121.251 14H119.554ZM123.319 14V13.2594L124.939 13.0743H125.541L127.161 13.2594V14H123.319ZM124.383 14C124.394 13.712 124.399 13.3777 124.399 12.9971C124.399 12.6166 124.399 12.2257 124.399 11.8246C124.409 11.4234 124.414 11.048 124.414 10.6983V9.21714C124.414 8.57943 124.317 8.14229 124.121 7.90571C123.926 7.65886 123.612 7.53543 123.18 7.53543C122.943 7.53543 122.702 7.57657 122.455 7.65886C122.218 7.73086 121.977 7.844 121.73 7.99829C121.483 8.15257 121.221 8.348 120.943 8.58457L120.789 7.92114H121.128C121.375 7.57143 121.637 7.27314 121.915 7.02629C122.193 6.76914 122.496 6.57886 122.825 6.45543C123.154 6.32171 123.509 6.25486 123.89 6.25486C124.599 6.25486 125.134 6.47086 125.494 6.90286C125.865 7.33486 126.05 8.00857 126.05 8.924V10.6983C126.05 11.048 126.05 11.4234 126.05 11.8246C126.05 12.2257 126.05 12.6166 126.05 12.9971C126.06 13.3777 126.07 13.712 126.081 14H124.383ZM41.7291 32V31.1823L43.7966 31.0434H44.3829L46.5583 31.1823V32H41.7291ZM43.1331 32C43.1537 31.4754 43.164 30.9509 43.164 30.4263C43.164 29.9017 43.164 29.372 43.164 28.8371C43.164 28.3023 43.164 27.7674 43.164 27.2326V26.4766C43.164 25.9417 43.164 25.412 43.164 24.8874C43.164 24.3526 43.164 23.8229 43.164 23.2983C43.164 22.7634 43.1537 22.2337 43.1331 21.7091H45C45 22.2234 44.9949 22.748 44.9846 23.2829C44.9743 23.8177 44.9691 24.3474 44.9691 24.872C44.9691 25.3966 44.9691 25.9314 44.9691 26.4766V27.464C44.9691 27.9474 44.9691 28.436 44.9691 28.9297C44.9691 29.4234 44.9743 29.9274 44.9846 30.4417C44.9949 30.9457 45 31.4651 45 32H43.1331ZM44.136 28.004V27.1709H45.7869C46.4349 27.1709 46.9543 27.0731 47.3451 26.8777C47.736 26.6823 48.0189 26.4097 48.1937 26.06C48.3686 25.7 48.456 25.2783 48.456 24.7949C48.456 24.0646 48.2451 23.5091 47.8234 23.1286C47.412 22.748 46.7537 22.5577 45.8486 22.5577H44.2286V21.7091H46.0183C46.9851 21.7091 47.7823 21.8377 48.4097 22.0949C49.0371 22.3417 49.5051 22.6966 49.8137 23.1594C50.1326 23.6223 50.292 24.1623 50.292 24.7794C50.292 25.3863 50.1326 25.9314 49.8137 26.4149C49.5051 26.8983 49.0166 27.284 48.348 27.572C47.6897 27.86 46.8206 28.004 45.7406 28.004H44.136ZM41.7291 22.5269V21.7091H43.9046V22.6657H43.704L41.7291 22.5269ZM53.4423 32.216C52.856 32.216 52.3572 32.0463 51.9457 31.7069C51.5343 31.3674 51.3286 30.8737 51.3286 30.2257C51.3286 29.8657 51.4057 29.5417 51.56 29.2537C51.7246 28.9554 51.9972 28.688 52.3777 28.4514C52.7686 28.2149 53.2983 28.004 53.9669 27.8189C54.2549 27.7366 54.5378 27.6594 54.8155 27.5874C55.1035 27.5154 55.3863 27.4383 55.664 27.356C55.9417 27.2737 56.2195 27.1966 56.4972 27.1246V27.7571C56.1475 27.86 55.7926 27.968 55.4326 28.0811C55.0829 28.1943 54.7383 28.3074 54.3989 28.4206C53.9977 28.5337 53.6943 28.6726 53.4886 28.8371C53.2829 28.9914 53.144 29.1611 53.072 29.3463C53 29.5314 52.964 29.7269 52.964 29.9326C52.964 30.3029 53.0772 30.5909 53.3035 30.7966C53.5297 30.992 53.828 31.0897 54.1983 31.0897C54.4143 31.0897 54.6149 31.0537 54.8 30.9817C54.9852 30.8994 55.1909 30.776 55.4172 30.6114C55.6435 30.4469 55.9109 30.236 56.2195 29.9789L56.3429 30.812H55.7875C55.5715 31.0897 55.3503 31.3366 55.124 31.5526C54.908 31.7583 54.6663 31.9177 54.3989 32.0309C54.1417 32.1543 53.8229 32.216 53.4423 32.216ZM57.4229 32.1851C56.96 32.1851 56.5898 32.0463 56.312 31.7686C56.0343 31.4806 55.88 31.0691 55.8492 30.5343L55.8183 30.488V26.8777C55.8183 26.4046 55.7669 26.0343 55.664 25.7669C55.5612 25.4994 55.3966 25.3143 55.1703 25.2114C54.944 25.0983 54.656 25.0417 54.3063 25.0417C54.0698 25.0417 53.8332 25.0623 53.5966 25.1034C53.3703 25.1446 53.1235 25.2166 52.856 25.3194L53.5503 24.7023L53.3035 26.0291C53.2623 26.3686 53.1595 26.6206 52.9949 26.7851C52.8406 26.9497 52.64 27.032 52.3932 27.032C52.136 27.032 51.9355 26.9703 51.7915 26.8469C51.6577 26.7131 51.5755 26.5434 51.5446 26.3377C51.6577 25.7 52.0023 25.196 52.5783 24.8257C53.1543 24.4451 53.8897 24.2549 54.7846 24.2549C55.3606 24.2549 55.844 24.3474 56.2349 24.5326C56.636 24.7074 56.9395 24.9954 57.1452 25.3966C57.3509 25.7874 57.4538 26.312 57.4538 26.9703V30.3646C57.4538 30.6526 57.5052 30.8583 57.608 30.9817C57.7109 31.1051 57.8498 31.1669 58.0246 31.1669C58.148 31.1669 58.256 31.1463 58.3486 31.1051C58.4515 31.0537 58.544 30.992 58.6263 30.92L58.8886 31.4137C58.724 31.6606 58.5183 31.8509 58.2715 31.9846C58.0349 32.1183 57.752 32.1851 57.4229 32.1851ZM62.37 32.0463L59.2998 24.4554H61.1666L63.4809 30.7503H63.342L63.6815 29.3617L65.4403 24.4554H66.4895L63.4655 32.0463H62.37ZM58.7289 25.1806V24.4554H62.802V25.1806L61.074 25.3966H60.1638L58.7289 25.1806ZM63.9129 25.1806V24.4554H67.0912V25.1806L65.8569 25.3966H65.4403L63.9129 25.1806ZM67.8854 32V31.2594L69.5671 31.0743H70.1688L71.7888 31.2594V32H67.8854ZM69.0117 32C69.0117 31.712 69.0117 31.3777 69.0117 30.9971C69.022 30.6063 69.0271 30.2103 69.0271 29.8091C69.0271 29.408 69.0271 29.0377 69.0271 28.6983V27.9269C69.0271 27.5257 69.0271 27.176 69.0271 26.8777C69.0271 26.5691 69.022 26.2503 69.0117 25.9211L67.7928 25.844V25.1651L70.3077 24.3166L70.7088 24.4246L70.678 26.4149V28.6983C70.678 29.0377 70.678 29.408 70.678 29.8091C70.6882 30.2103 70.6934 30.6063 70.6934 30.9971C70.6934 31.3777 70.6985 31.712 70.7088 32H69.0117ZM69.814 22.8817C69.4951 22.8817 69.2277 22.7789 69.0117 22.5731C68.806 22.3674 68.7031 22.1103 68.7031 21.8017C68.7031 21.4931 68.806 21.2411 69.0117 21.0457C69.2277 20.84 69.4951 20.7371 69.814 20.7371C70.1225 20.7371 70.3797 20.84 70.5854 21.0457C70.8014 21.2411 70.9094 21.4931 70.9094 21.8017C70.9094 22.1103 70.8014 22.3674 70.5854 22.5731C70.3797 22.7789 70.1225 22.8817 69.814 22.8817ZM72.9181 32V31.2594L74.5998 31.0743H75.2015L76.7753 31.2594V32H72.9181ZM74.0444 32C74.0444 31.712 74.0444 31.3777 74.0444 30.9971C74.0547 30.6063 74.0598 30.2103 74.0598 29.8091C74.0701 29.408 74.0753 29.0377 74.0753 28.6983V27.896C74.0753 27.6286 74.0701 27.3869 74.0598 27.1709C74.0598 26.9549 74.0547 26.7491 74.0444 26.5537C74.0444 26.348 74.0444 26.1371 74.0444 25.9211L72.8255 25.844V25.1651L75.0627 24.3166L75.4638 24.4246L75.6644 26.1063L75.7107 26.1217V28.6983C75.7107 29.0377 75.7107 29.408 75.7107 29.8091C75.721 30.2103 75.7261 30.6063 75.7261 30.9971C75.7364 31.3777 75.7415 31.712 75.7415 32H74.0444ZM77.8707 32V31.2594L79.5215 31.0743H80.1078L81.7433 31.2594V32H77.8707ZM78.9661 32C78.9661 31.712 78.9661 31.3777 78.9661 30.9971C78.9764 30.6166 78.9815 30.2257 78.9815 29.8246C78.9815 29.4234 78.9815 29.048 78.9815 28.6983V27.2171C78.9815 26.6 78.8838 26.168 78.6884 25.9211C78.493 25.664 78.1793 25.5354 77.7473 25.5354C77.5004 25.5354 77.2484 25.5766 76.9913 25.6589C76.7444 25.7309 76.4924 25.844 76.2353 25.9983C75.9781 26.1526 75.7158 26.348 75.4484 26.5846L75.3404 25.8594H75.6953C75.9215 25.5406 76.1787 25.2629 76.4667 25.0263C76.7547 24.7897 77.0633 24.6046 77.3924 24.4709C77.7318 24.3269 78.0867 24.2549 78.457 24.2549C79.1667 24.2549 79.7067 24.476 80.077 24.9183C80.4473 25.3606 80.6324 26.0497 80.6324 26.9857V28.6983C80.6324 29.048 80.6324 29.4234 80.6324 29.8246C80.6324 30.2257 80.6324 30.6166 80.6324 30.9971C80.6427 31.3777 80.6478 31.712 80.6478 32H78.9661ZM85.9043 35.6257C85.174 35.6257 84.5671 35.5434 84.0837 35.3789C83.6003 35.2246 83.2351 35.0034 82.9883 34.7154C82.7517 34.4377 82.6334 34.1189 82.6334 33.7589C82.6334 33.4709 82.7054 33.2137 82.8494 32.9874C83.0037 32.7611 83.2403 32.5554 83.5591 32.3703C83.878 32.1954 84.2946 32.036 84.8089 31.892L84.9169 32C84.742 32.144 84.5929 32.2931 84.4694 32.4474C84.346 32.6017 84.2534 32.7611 84.1917 32.9257C84.13 33.0903 84.0991 33.2754 84.0991 33.4811C84.0991 33.7486 84.1711 33.98 84.3151 34.1754C84.4694 34.3811 84.6957 34.5354 84.994 34.6383C85.3026 34.7514 85.6883 34.808 86.1511 34.808C86.7169 34.808 87.19 34.7411 87.5706 34.6074C87.9511 34.4737 88.234 34.2886 88.4191 34.052C88.6146 33.8257 88.7123 33.5789 88.7123 33.3114C88.7123 32.9823 88.5991 32.7149 88.3729 32.5091C88.1466 32.3034 87.7814 32.2006 87.2774 32.2006H85.3489C85.174 32.2006 85.0043 32.1954 84.8397 32.1851C84.6751 32.1851 84.5157 32.1749 84.3614 32.1543V31.9229C83.9603 31.8509 83.6414 31.7171 83.4049 31.5217C83.1786 31.3263 83.0654 31.0537 83.0654 30.704C83.0654 30.3851 83.1786 30.1023 83.4049 29.8554C83.6311 29.5983 83.9654 29.3411 84.4077 29.084V28.76L85.1329 28.9143C84.886 29.1303 84.706 29.3206 84.5929 29.4851C84.49 29.6497 84.4386 29.8297 84.4386 30.0251C84.4386 30.2823 84.5209 30.4777 84.6854 30.6114C84.8603 30.7349 85.1483 30.7966 85.5494 30.7966H87.478C88.0849 30.7966 88.5837 30.884 88.9746 31.0589C89.3757 31.2337 89.6689 31.4754 89.854 31.784C90.0494 32.0823 90.1471 32.4371 90.1471 32.8486C90.1471 33.2189 90.0443 33.5686 89.8386 33.8977C89.6431 34.2371 89.3603 34.5354 88.99 34.7926C88.6197 35.06 88.1723 35.2657 87.6477 35.4097C87.1231 35.5537 86.542 35.6257 85.9043 35.6257ZM86.0123 29.3771C85.4054 29.3771 84.8706 29.2794 84.4077 29.084C83.9551 28.8783 83.6054 28.5851 83.3586 28.2046C83.1117 27.824 82.9883 27.3663 82.9883 26.8314C82.9883 26.2966 83.1117 25.8389 83.3586 25.4583C83.6157 25.0674 83.9706 24.7691 84.4231 24.5634C84.8757 24.3577 85.4054 24.2549 86.0123 24.2549C86.4031 24.2549 86.7529 24.3011 87.0614 24.3937C87.3803 24.476 87.6529 24.5994 87.8791 24.764C88.1157 24.9183 88.3009 25.0983 88.4346 25.304L88.558 25.3349C88.7123 25.52 88.8306 25.736 88.9129 25.9829C88.9951 26.2194 89.0363 26.492 89.0363 26.8006C89.0363 27.3251 88.9077 27.7829 88.6506 28.1737C88.4037 28.5543 88.0489 28.8526 87.586 29.0686C87.1334 29.2743 86.6089 29.3771 86.0123 29.3771ZM85.9969 28.652C86.3054 28.652 86.5677 28.5749 86.7837 28.4206C87.01 28.2663 87.1797 28.0503 87.2929 27.7726C87.4163 27.4949 87.478 27.1657 87.478 26.7851C87.478 26.4149 87.4163 26.096 87.2929 25.8286C87.1797 25.5611 87.0151 25.3554 86.7991 25.2114C86.5831 25.0571 86.326 24.98 86.0277 24.98C85.7191 24.98 85.4517 25.0571 85.2254 25.2114C85.0094 25.3657 84.8397 25.5817 84.7163 25.8594C84.6031 26.1269 84.5466 26.4457 84.5466 26.816C84.5466 27.1863 84.6031 27.5103 84.7163 27.788C84.8397 28.0657 85.0043 28.2817 85.21 28.436C85.426 28.58 85.6883 28.652 85.9969 28.652ZM87.9717 25.6126V25.1497H88.2957L89.8849 24.1931L90.3323 24.2857V25.6126H87.9717ZM98.1103 32.2469C97.4623 32.2469 96.8503 32.1646 96.2743 32C95.7086 31.8354 95.2509 31.6503 94.9012 31.4446L94.9629 29.1611H96.0275L96.4595 31.5217L95.4258 31.2594V30.4263C95.724 30.632 96.0069 30.8069 96.2743 30.9509C96.5418 31.0846 96.8195 31.1874 97.1075 31.2594C97.3955 31.3314 97.7246 31.3674 98.0949 31.3674C98.5886 31.3674 99 31.2954 99.3292 31.1514C99.6686 31.0074 99.9206 30.8017 100.085 30.5343C100.26 30.2669 100.347 29.9634 100.347 29.624C100.347 29.3154 100.286 29.0531 100.162 28.8371C100.039 28.6211 99.8435 28.4309 99.576 28.2663C99.3189 28.1017 98.9743 27.9371 98.5423 27.7726L97.9715 27.5411C97.416 27.3149 96.9172 27.0629 96.4749 26.7851C96.0429 26.4971 95.7035 26.1577 95.4566 25.7669C95.2098 25.376 95.0863 24.8977 95.0863 24.332C95.0863 23.7251 95.2406 23.2109 95.5492 22.7891C95.868 22.3571 96.3 22.028 96.8452 21.8017C97.4006 21.5754 98.028 21.4623 98.7275 21.4623C99.3138 21.4623 99.8435 21.5394 100.317 21.6937C100.79 21.8377 101.175 22.0177 101.474 22.2337L101.412 24.3783H100.378L99.9155 22.0794L100.965 22.3726V23.2211C100.594 22.9229 100.234 22.7017 99.8846 22.5577C99.5452 22.4137 99.1543 22.3417 98.712 22.3417C98.3109 22.3417 97.9612 22.4086 97.6629 22.5423C97.3646 22.6657 97.1332 22.8509 96.9686 23.0977C96.804 23.3343 96.7218 23.6171 96.7218 23.9463C96.7218 24.2446 96.7835 24.5017 96.9069 24.7177C97.0406 24.9337 97.236 25.1291 97.4932 25.304C97.7503 25.4789 98.0743 25.6434 98.4652 25.7977L99.0515 26.0291C99.6995 26.276 100.239 26.5434 100.671 26.8314C101.114 27.1194 101.448 27.4589 101.674 27.8497C101.901 28.2303 102.014 28.6931 102.014 29.2383C102.014 29.8554 101.849 30.3903 101.52 30.8429C101.201 31.2851 100.749 31.6297 100.162 31.8766C99.5863 32.1234 98.9023 32.2469 98.1103 32.2469ZM104.871 25.3966V24.4709H107.71V25.3966H104.871ZM105.997 32.1851C105.401 32.1851 104.917 32.0257 104.547 31.7069C104.187 31.3777 104.007 30.8737 104.007 30.1949C104.007 29.9891 104.007 29.7886 104.007 29.5931C104.017 29.3977 104.022 29.1714 104.022 28.9143V25.3966H102.757V24.6251L104.686 24.3783L104.053 24.8874L104.67 22.3263H105.766L105.627 24.9029L105.673 25.1034V30.0406C105.673 30.4314 105.75 30.7143 105.905 30.8891C106.069 31.064 106.295 31.1514 106.583 31.1514C106.769 31.1514 106.938 31.1206 107.093 31.0589C107.247 30.9971 107.396 30.92 107.54 30.8274L107.91 31.3829C107.797 31.5371 107.648 31.676 107.463 31.7994C107.278 31.9126 107.062 32.0051 106.815 32.0771C106.578 32.1491 106.306 32.1851 105.997 32.1851ZM112.453 32.2006C111.785 32.2006 111.163 32.0514 110.587 31.7531C110.011 31.4446 109.548 30.9971 109.198 30.4109C108.848 29.8246 108.673 29.1046 108.673 28.2509C108.673 27.3971 108.848 26.672 109.198 26.0754C109.558 25.4789 110.026 25.0263 110.602 24.7177C111.178 24.4091 111.795 24.2549 112.453 24.2549C113.112 24.2549 113.729 24.4091 114.305 24.7177C114.881 25.016 115.349 25.4634 115.709 26.06C116.069 26.6463 116.249 27.3663 116.249 28.22C116.249 29.0634 116.069 29.7834 115.709 30.38C115.359 30.9766 114.896 31.4291 114.32 31.7377C113.744 32.0463 113.122 32.2006 112.453 32.2006ZM112.453 31.3829C112.875 31.3829 113.235 31.2697 113.533 31.0434C113.832 30.8171 114.058 30.4726 114.212 30.0097C114.377 29.5469 114.459 28.9606 114.459 28.2509C114.459 27.5411 114.377 26.9497 114.212 26.4766C114.058 26.0034 113.832 25.6537 113.533 25.4274C113.235 25.1909 112.875 25.0726 112.453 25.0726C112.032 25.0726 111.672 25.1909 111.373 25.4274C111.075 25.6537 110.849 26.0034 110.695 26.4766C110.54 26.9394 110.463 27.5257 110.463 28.2354C110.463 28.9451 110.54 29.5314 110.695 29.9943C110.849 30.4571 111.075 30.8069 111.373 31.0434C111.672 31.2697 112.032 31.3829 112.453 31.3829ZM117.516 32V31.2594L119.198 31.0743H119.8L121.373 31.2594V32H117.516ZM118.643 32C118.643 31.712 118.643 31.3777 118.643 30.9971C118.653 30.6063 118.658 30.2103 118.658 29.8091C118.668 29.408 118.673 29.0377 118.673 28.6983V27.896C118.673 27.6286 118.668 27.3869 118.658 27.1709C118.658 26.9549 118.653 26.7491 118.643 26.5537C118.643 26.348 118.643 26.1371 118.643 25.9211L117.424 25.844V25.1651L119.661 24.3166L120.062 24.4246L120.263 26.1063L120.309 26.1217V28.6983C120.309 29.0377 120.309 29.408 120.309 29.8091C120.319 30.2103 120.324 30.6063 120.324 30.9971C120.335 31.3777 120.34 31.712 120.34 32H118.643ZM122.469 32V31.2594L124.12 31.0743H124.706L126.341 31.2594V32H122.469ZM123.564 32C123.564 31.712 123.564 31.3777 123.564 30.9971C123.575 30.6166 123.58 30.2257 123.58 29.8246C123.58 29.4234 123.58 29.048 123.58 28.6983V27.2171C123.58 26.6 123.482 26.168 123.287 25.9211C123.091 25.664 122.777 25.5354 122.345 25.5354C122.099 25.5354 121.847 25.5766 121.589 25.6589C121.343 25.7309 121.091 25.844 120.833 25.9983C120.576 26.1526 120.314 26.348 120.047 26.5846L119.939 25.8594H120.293C120.52 25.5406 120.777 25.2629 121.065 25.0263C121.353 24.7897 121.661 24.6046 121.991 24.4709C122.33 24.3269 122.685 24.2549 123.055 24.2549C123.765 24.2549 124.305 24.476 124.675 24.9183C125.045 25.3606 125.231 26.0497 125.231 26.9857V28.6983C125.231 29.048 125.231 29.4234 125.231 29.8246C125.231 30.2257 125.231 30.6166 125.231 30.9971C125.241 31.3777 125.246 31.712 125.246 32H123.564ZM131.181 32.2006C130.41 32.2006 129.741 32.0463 129.176 31.7377C128.61 31.4291 128.173 30.9869 127.864 30.4109C127.566 29.8246 127.417 29.1251 127.417 28.3126C127.417 27.5103 127.576 26.8057 127.895 26.1989C128.214 25.5817 128.651 25.1034 129.206 24.764C129.772 24.4246 130.405 24.2549 131.104 24.2549C131.732 24.2549 132.277 24.3783 132.74 24.6251C133.213 24.872 133.578 25.2269 133.835 25.6897C134.102 26.1423 134.236 26.6874 134.236 27.3251C134.236 27.5103 134.226 27.6903 134.205 27.8651C134.185 28.04 134.159 28.1891 134.128 28.3126H128.358V27.572H132.045C132.302 27.5103 132.472 27.4126 132.554 27.2789C132.637 27.1349 132.678 26.96 132.678 26.7543C132.678 26.3737 132.611 26.06 132.477 25.8131C132.354 25.556 132.174 25.3657 131.937 25.2423C131.701 25.1086 131.423 25.0417 131.104 25.0417C130.744 25.0417 130.415 25.1497 130.117 25.3657C129.818 25.5714 129.577 25.9006 129.392 26.3531C129.217 26.7954 129.129 27.3817 129.129 28.112C129.129 28.7497 129.232 29.2897 129.438 29.732C129.644 30.164 129.932 30.4931 130.302 30.7194C130.682 30.9457 131.125 31.0589 131.629 31.0589C132.133 31.0589 132.56 30.9714 132.909 30.7966C133.259 30.6217 133.573 30.3697 133.85 30.0406L134.329 30.4417C134.113 30.7914 133.861 31.1 133.573 31.3674C133.295 31.6349 132.961 31.8406 132.57 31.9846C132.189 32.1286 131.726 32.2006 131.181 32.2006ZM138.251 32.2006C137.737 32.2006 137.269 32.1491 136.847 32.0463C136.426 31.9434 136.04 31.8046 135.69 31.6297L135.644 29.7937H136.631L137.033 31.676H136.292V30.8891C136.549 31.0537 136.842 31.1823 137.171 31.2749C137.501 31.3674 137.861 31.4137 138.251 31.4137C138.632 31.4137 138.946 31.3674 139.193 31.2749C139.439 31.172 139.619 31.0331 139.733 30.8583C139.846 30.6731 139.902 30.4726 139.902 30.2566C139.902 29.9377 139.789 29.6857 139.563 29.5006C139.337 29.3051 138.966 29.1251 138.452 28.9606L137.881 28.7754C137.429 28.6211 137.038 28.4463 136.709 28.2509C136.39 28.0451 136.143 27.8034 135.968 27.5257C135.793 27.248 135.706 26.9137 135.706 26.5229C135.706 26.1011 135.824 25.7206 136.061 25.3811C136.297 25.0314 136.637 24.7589 137.079 24.5634C137.521 24.3577 138.056 24.2549 138.683 24.2549C139.136 24.2549 139.558 24.3063 139.949 24.4091C140.339 24.512 140.699 24.6509 141.029 24.8257L140.967 26.5383H140.01L139.671 24.8411H140.319V25.52C140.072 25.3554 139.815 25.2371 139.547 25.1651C139.28 25.0829 138.987 25.0417 138.668 25.0417C138.195 25.0417 137.835 25.1394 137.588 25.3349C137.351 25.52 137.233 25.7669 137.233 26.0754C137.233 26.384 137.336 26.6257 137.542 26.8006C137.747 26.9651 138.118 27.14 138.653 27.3251L139.115 27.4794C139.65 27.644 140.087 27.8394 140.427 28.0657C140.777 28.292 141.034 28.5491 141.198 28.8371C141.373 29.1251 141.461 29.4594 141.461 29.84C141.461 30.2926 141.332 30.6989 141.075 31.0589C140.828 31.4086 140.463 31.6863 139.979 31.892C139.506 32.0977 138.93 32.2006 138.251 32.2006Z" fill="white"/>
</svg>
