<svg width="36" height="36" viewBox="0 0 36 36" fill="none" xmlns="http://www.w3.org/2000/svg">
<path d="M21.0858 11.4749C21.3164 11.4749 21.5383 11.5634 21.7056 11.7223L24.2448 14.1337C24.4237 14.3036 24.525 14.5396 24.525 14.7863V21.0856C24.525 21.3163 24.4364 21.5382 24.2776 21.7054L21.8661 24.2446C21.6962 24.4235 21.4603 24.5249 21.2135 24.5249H14.9142C14.6836 24.5249 14.4617 24.4363 14.2944 24.2775L11.7552 21.866C11.5763 21.6961 11.475 21.4601 11.475 21.2134V14.9141C11.475 14.6834 11.5636 14.4616 11.7224 14.2943L14.1339 11.7551C14.3038 11.5762 14.5397 11.4749 14.7865 11.4749L21.0858 11.4749Z" fill="white"/>
<path fill-rule="evenodd" clip-rule="evenodd" d="M20.7 25.7251C21.1971 25.7251 21.6 26.128 21.6 26.6251V32.1751C21.6 32.6721 21.1971 33.0751 20.7 33.0751H14.5549H14.4316C14.1944 33.0751 13.9668 33.1687 13.7983 33.3355L13.7106 33.4224L11.3704 35.7396C11.2018 35.9065 10.9743 36.0001 10.7371 36.0001H2.61788C2.38072 36.0001 2.15315 35.9065 1.98463 35.7396L0.266807 34.0387C0.0960992 33.8696 5.34413e-05 33.6394 5.19508e-05 33.3991L2.32909e-06 25.401C8.38599e-07 25.1608 0.0960496 24.9305 0.266764 24.7615L1.98463 23.0605C2.15315 22.8937 2.38071 22.8001 2.61786 22.8001H2.925H10.275H10.7371C10.9743 22.8001 11.2018 22.8937 11.3704 23.0605L13.7106 25.3778L13.7983 25.4646C13.9668 25.6315 14.1944 25.7251 14.4316 25.7251H14.5549H20.7ZM25.4009 36.0001C25.1607 36.0001 24.9304 35.904 24.7614 35.7333L23.0605 34.0154C22.8936 33.8469 22.8 33.6194 22.8 33.3822V33.0751V25.7251L22.8 25.2629C22.8 25.0258 22.8936 24.7982 23.0605 24.6297L25.3777 22.2894L25.4645 22.2018C25.6314 22.0332 25.725 21.8057 25.725 21.5685V21.4451V15.3001C25.725 14.803 26.1279 14.4001 26.625 14.4001H32.175C32.6721 14.4001 33.075 14.803 33.075 15.3001L33.075 21.4451V21.5685C33.075 21.8057 33.1686 22.0332 33.3355 22.2018L33.4223 22.2894L35.7395 24.6297C35.9064 24.7982 36 25.0258 36 25.2629V33.3822C36 33.6194 35.9064 33.8469 35.7395 34.0154L34.0386 35.7333C33.8696 35.904 33.6393 36 33.3991 36L25.4009 36.0001ZM9.375 21.6001C9.87206 21.6001 10.275 21.1971 10.275 20.7001V14.555V14.4316C10.275 14.1945 10.3686 13.9669 10.5355 13.7984L10.6223 13.7107L12.9395 11.3704C13.1064 11.2019 13.2 10.9744 13.2 10.7372L13.2 10.275L13.2 2.925L13.2 2.61794C13.2 2.38079 13.1064 2.15322 12.9395 1.9847L11.2386 0.266841C11.0696 0.0961262 10.8393 7.77094e-05 10.5991 7.91922e-05L2.60093 0.00012856C2.3607 0.000130043 2.13044 0.0961756 1.96141 0.266884L0.260468 1.98471C0.0936048 2.15323 0 2.3808 0 2.61795V10.7372C0 10.9744 0.0936047 11.2019 0.260468 11.3704L2.57771 13.7107L2.66453 13.7984C2.8314 13.9669 2.925 14.1945 2.925 14.4316V14.555V20.7001C2.925 21.1971 3.32794 21.6001 3.825 21.6001H9.375ZM21.445 2.925L15.3 2.925C14.8029 2.925 14.4 3.32794 14.4 3.825L14.4 9.375C14.4 9.87206 14.8029 10.275 15.3 10.275H21.445L21.5684 10.275C21.8056 10.275 22.0332 10.3686 22.2017 10.5355L22.2894 10.6223L24.6296 12.9395C24.7981 13.1064 25.0257 13.2 25.2629 13.2H33.3821C33.6193 13.2 33.8468 13.1064 34.0154 12.9395L35.7332 11.2386C35.9039 11.0696 36 10.8393 36 10.5991L35.9999 2.60093C35.9999 2.3607 35.9039 2.13044 35.7332 1.96141L34.0154 0.260469C33.8468 0.0936052 33.6193 3.37315e-07 33.3821 3.27742e-07L25.2629 0C25.0257 -9.57298e-09 24.7981 0.0936047 24.6296 0.260468L22.2894 2.57771L22.2017 2.66453C22.0332 2.8314 21.8056 2.925 21.5684 2.925H21.445Z" fill="white"/>
</svg>
