<svg width="400" height="400" viewBox="0 0 400 400" fill="none" xmlns="http://www.w3.org/2000/svg">
	<g>
		<path fill-rule="evenodd" clip-rule="evenodd"
			d="M141 105C141 103.343 142.343 102 144 102H234C235.657 102 237 103.343 237 105V147C237 148.657 235.657 150 234 150H144C142.343 150 141 148.657 141 147V105ZM191 155C191 153.343 192.343 152 194 152H284C285.657 152 287 153.343 287 155V197C287 198.657 285.657 200 284 200H194C192.343 200 191 198.657 191 197V155ZM244 202C242.343 202 241 203.343 241 205V247C241 248.657 242.343 250 244 250H334C335.657 250 337 248.657 337 247V205C337 203.343 335.657 202 334 202H244Z"
			fill="#9D9D9D" />
		<path fill-rule="evenodd" clip-rule="evenodd"
			d="M91 105C91 103.343 92.3431 102 94 102H136C137.657 102 139 103.343 139 105V195C139 196.657 137.657 198 136 198H94C92.3431 198 91 196.657 91 195V105ZM141 155C141 153.343 142.343 152 144 152H186C187.657 152 189 153.343 189 155V245C189 246.657 187.657 248 186 248H144C142.343 248 141 246.657 141 245V155ZM194 202C192.343 202 191 203.343 191 205V295C191 296.657 192.343 298 194 298H236C237.657 298 239 296.657 239 295V205C239 203.343 237.657 202 236 202H194Z"
			fill="#838383" />
		<path fill-rule="evenodd" clip-rule="evenodd"
			d="M142 -96C140.343 -96 139 -94.6569 139 -93V-51C139 -49.3431 140.343 -48 142 -48H232C233.657 -48 235 -49.3431 235 -51V-93C235 -94.6569 233.657 -96 232 -96H142ZM287 -91C287 -92.6569 288.343 -94 290 -94H332C333.657 -94 335 -92.6569 335 -91V-1C335 0.656853 333.657 2 332 2H290C288.343 2 287 0.656853 287 -1V-91ZM387 -41C387 -42.6569 388.343 -44 390 -44H480C481.657 -44 483 -42.6569 483 -41V1C483 2.65685 481.657 4 480 4H390C388.343 4 387 2.65685 387 1V-41ZM-57 153C-57 151.343 -55.6569 150 -54 150H-12C-10.3431 150 -9 151.343 -9 153V243C-9 244.657 -10.3431 246 -12 246H-54C-55.6569 246 -57 244.657 -57 243V153ZM-7 153C-7 151.343 -5.65686 150 -4 150H86C87.6569 150 89 151.343 89 153V195C89 196.657 87.6569 198 86 198H-4C-5.65686 198 -7 196.657 -7 195V153ZM43 203C43 201.343 44.3431 200 46 200H136C137.657 200 139 201.343 139 203V245C139 246.657 137.657 248 136 248H46C44.3431 248 43 246.657 43 245V203ZM96 250C94.3431 250 93 251.343 93 253V295C93 296.657 94.3431 298 96 298H186C187.657 298 189 296.657 189 295V253C189 251.343 187.657 250 186 250H96ZM-4 200C-5.65686 200 -7 201.343 -7 203V293C-7 294.657 -5.65686 296 -4 296H38C39.6569 296 41 294.657 41 293V203C41 201.343 39.6569 200 38 200H-4ZM43 253C43 251.343 44.3431 250 46 250H88C89.6569 250 91 251.343 91 253V343C91 344.657 89.6569 346 88 346H46C44.3431 346 43 344.657 43 343V253ZM146 300C144.343 300 143 301.343 143 303V345C143 346.657 144.343 348 146 348H236C237.657 348 239 346.657 239 345V303C239 301.343 237.657 300 236 300H146ZM193 353C193 351.343 194.343 350 196 350H286C287.657 350 289 351.343 289 353V395C289 396.657 287.657 398 286 398H196C194.343 398 193 396.657 193 395V353ZM246 400C244.343 400 243 401.343 243 403V445C243 446.657 244.343 448 246 448H336C337.657 448 339 446.657 339 445V403C339 401.343 337.657 400 336 400H246ZM93 303C93 301.343 94.3431 300 96 300H138C139.657 300 141 301.343 141 303V393C141 394.657 139.657 396 138 396H96C94.3431 396 93 394.657 93 393V303ZM-2 398C-3.65686 398 -5 399.343 -5 401V491C-5 492.657 -3.65686 494 -2 494H40C41.6569 494 43 492.657 43 491V401C43 399.343 41.6569 398 40 398H-2ZM143 353C143 351.343 144.343 350 146 350H188C189.657 350 191 351.343 191 353V443C191 444.657 189.657 446 188 446H146C144.343 446 143 444.657 143 443V353ZM196 400C194.343 400 193 401.343 193 403V493C193 494.657 194.343 496 196 496H238C239.657 496 241 494.657 241 493V403C241 401.343 239.657 400 238 400H196ZM440 6C438.343 6 437 7.34315 437 9V51C437 52.6569 438.343 54 440 54H530C531.657 54 533 52.6569 533 51V9C533 7.34315 531.657 6 530 6H440ZM487 59C487 57.3431 488.343 56 490 56H580C581.657 56 583 57.3431 583 59V101C583 102.657 581.657 104 580 104H490C488.343 104 487 102.657 487 101V59ZM340 -44C338.343 -44 337 -42.6569 337 -41V49C337 50.6569 338.343 52 340 52H382C383.657 52 385 50.6569 385 49V-41C385 -42.6569 383.657 -44 382 -44H340ZM390 6C388.343 6 387 7.34315 387 9V99C387 100.657 388.343 102 390 102H432C433.657 102 435 100.657 435 99V9C435 7.34315 433.657 6 432 6H390ZM437 59C437 57.3431 438.343 56 440 56H482C483.657 56 485 57.3431 485 59V149C485 150.657 483.657 152 482 152H440C438.343 152 437 150.657 437 149V59ZM-6 -48C-7.65686 -48 -9 -46.6569 -9 -45V-3C-9 -1.34315 -7.65686 0 -6 0H84C85.6569 0 87 -1.34315 87 -3V-45C87 -46.6569 85.6569 -48 84 -48H-6ZM41 5C41 3.34315 42.3431 2 44 2H134C135.657 2 137 3.34315 137 5V47C137 48.6569 135.657 50 134 50H44C42.3431 50 41 48.6569 41 47V5ZM94 52C92.3431 52 91 53.3431 91 55V97C91 98.6569 92.3431 100 94 100H184C185.657 100 187 98.6569 187 97V55C187 53.3431 185.657 52 184 52H94ZM-59 -45C-59 -46.6569 -57.6569 -48 -56 -48H-14C-12.3431 -48 -11 -46.6569 -11 -45V45C-11 46.6569 -12.3431 48 -14 48H-56C-57.6569 48 -59 46.6569 -59 45V-45ZM-6 2C-7.65686 2 -9 3.34315 -9 5V95C-9 96.6569 -7.65686 98 -6 98H36C37.6569 98 39 96.6569 39 95V5C39 3.34315 37.6569 2 36 2H-6ZM41 55C41 53.3431 42.3431 52 44 52H86C87.6569 52 89 53.3431 89 55V145C89 146.657 87.6569 148 86 148H44C42.3431 148 41 146.657 41 145V55ZM-154 0C-155.657 0 -157 1.34315 -157 3V45C-157 46.6569 -155.657 48 -154 48H-64C-62.3431 48 -61 46.6569 -61 45V3C-61 1.34315 -62.3431 0 -64 0H-154ZM-107 53C-107 51.3431 -105.657 50 -104 50H-14C-12.3431 50 -11 51.3431 -11 53V95C-11 96.6569 -12.3431 98 -14 98H-104C-105.657 98 -107 96.6569 -107 95V53ZM-54 100C-55.6569 100 -57 101.343 -57 103V145C-57 146.657 -55.6569 148 -54 148H36C37.6569 148 39 146.657 39 145V103C39 101.343 37.6569 100 36 100H-54ZM-207 3C-207 1.34315 -205.657 0 -204 0H-162C-160.343 0 -159 1.34315 -159 3V93C-159 94.6569 -160.343 96 -162 96H-204C-205.657 96 -207 94.6569 -207 93V3ZM-154 50C-155.657 50 -157 51.3431 -157 53V143C-157 144.657 -155.657 146 -154 146H-112C-110.343 146 -109 144.657 -109 143V53C-109 51.3431 -110.343 50 -112 50H-154ZM-107 103C-107 101.343 -105.657 100 -104 100H-62C-60.3431 100 -59 101.343 -59 103V193C-59 194.657 -60.3431 196 -62 196H-104C-105.657 196 -107 194.657 -107 193V103ZM189 -43C189 -44.6569 190.343 -46 192 -46H282C283.657 -46 285 -44.6569 285 -43V-1C285 0.656853 283.657 2 282 2H192C190.343 2 189 0.656853 189 -1V-43ZM242 4C240.343 4 239 5.34315 239 7V49C239 50.6569 240.343 52 242 52H332C333.657 52 335 50.6569 335 49V7C335 5.34315 333.657 4 332 4H242ZM89 -93C89 -94.6569 90.3431 -96 92 -96H134C135.657 -96 137 -94.6569 137 -93V-3C137 -1.34315 135.657 0 134 0H92C90.3431 0 89 -1.34315 89 -3V-93ZM142 -46C140.343 -46 139 -44.6569 139 -43V47C139 48.6569 140.343 50 142 50H184C185.657 50 187 48.6569 187 47V-43C187 -44.6569 185.657 -46 184 -46H142ZM189 7C189 5.34315 190.343 4 192 4H234C235.657 4 237 5.34315 237 7V97C237 98.6569 235.657 100 234 100H192C190.343 100 189 98.6569 189 97V7ZM-102 248C-103.657 248 -105 249.343 -105 251V293C-105 294.657 -103.657 296 -102 296H-12C-10.3431 296 -9 294.657 -9 293V251C-9 249.343 -10.3431 248 -12 248H-102ZM-55 301C-55 299.343 -53.6569 298 -52 298H38C39.6569 298 41 299.343 41 301V343C41 344.657 39.6569 346 38 346H-52C-53.6569 346 -55 344.657 -55 343V301ZM-2 348C-3.65686 348 -5 349.343 -5 351V393C-5 394.657 -3.65686 396 -2 396H88C89.6569 396 91 394.657 91 393V351C91 349.343 89.6569 348 88 348H-2ZM45 401C45 399.343 46.3431 398 48 398H138C139.657 398 141 399.343 141 401V443C141 444.657 139.657 446 138 446H48C46.3431 446 45 444.657 45 443V401ZM-152 248C-153.657 248 -155 249.343 -155 251V341C-155 342.657 -153.657 344 -152 344H-110C-108.343 344 -107 342.657 -107 341V251C-107 249.343 -108.343 248 -110 248H-152ZM-105 301C-105 299.343 -103.657 298 -102 298H-60C-58.3431 298 -57 299.343 -57 301V391C-57 392.657 -58.3431 394 -60 394H-102C-103.657 394 -105 392.657 -105 391V301ZM-52 348C-53.6569 348 -55 349.343 -55 351V441C-55 442.657 -53.6569 444 -52 444H-10C-8.34314 444 -7 442.657 -7 441V351C-7 349.343 -8.34314 348 -10 348H-52ZM289 57C289 55.3431 290.343 54 292 54H382C383.657 54 385 55.3431 385 57V99C385 100.657 383.657 102 382 102H292C290.343 102 289 100.657 289 99V57ZM342 104C340.343 104 339 105.343 339 107V149C339 150.657 340.343 152 342 152H432C433.657 152 435 150.657 435 149V107C435 105.343 433.657 104 432 104H342ZM389 157C389 155.343 390.343 154 392 154H482C483.657 154 485 155.343 485 157V199C485 200.657 483.657 202 482 202H392C390.343 202 389 200.657 389 199V157ZM242 54C240.343 54 239 55.3431 239 57V147C239 148.657 240.343 150 242 150H284C285.657 150 287 148.657 287 147V57C287 55.3431 285.657 54 284 54H242ZM289 107C289 105.343 290.343 104 292 104H334C335.657 104 337 105.343 337 107V197C337 198.657 335.657 200 334 200H292C290.343 200 289 198.657 289 197V107ZM342 154C340.343 154 339 155.343 339 157V247C339 248.657 340.343 250 342 250H384C385.657 250 387 248.657 387 247V157C387 155.343 385.657 154 384 154H342ZM291 255C291 253.343 292.343 252 294 252H384C385.657 252 387 253.343 387 255V297C387 298.657 385.657 300 384 300H294C292.343 300 291 298.657 291 297V255ZM344 302C342.343 302 341 303.343 341 305V347C341 348.657 342.343 350 344 350H434C435.657 350 437 348.657 437 347V305C437 303.343 435.657 302 434 302H344ZM391 355C391 353.343 392.343 352 394 352H484C485.657 352 487 353.343 487 355V397C487 398.657 485.657 400 484 400H394C392.343 400 391 398.657 391 397V355ZM244 252C242.343 252 241 253.343 241 255V345C241 346.657 242.343 348 244 348H286C287.657 348 289 346.657 289 345V255C289 253.343 287.657 252 286 252H244ZM291 305C291 303.343 292.343 302 294 302H336C337.657 302 339 303.343 339 305V395C339 396.657 337.657 398 336 398H294C292.343 398 291 396.657 291 395V305ZM344 352C342.343 352 341 353.343 341 355V445C341 446.657 342.343 448 344 448H386C387.657 448 389 446.657 389 445V355C389 353.343 387.657 352 386 352H344ZM439 207C439 205.343 440.343 204 442 204H532C533.657 204 535 205.343 535 207V249C535 250.657 533.657 252 532 252H442C440.343 252 439 250.657 439 249V207ZM492 254C490.343 254 489 255.343 489 257V299C489 300.657 490.343 302 492 302H582C583.657 302 585 300.657 585 299V257C585 255.343 583.657 254 582 254H492ZM539 307C539 305.343 540.343 304 542 304H632C633.657 304 635 305.343 635 307V349C635 350.657 633.657 352 632 352H542C540.343 352 539 350.657 539 349V307ZM392 204C390.343 204 389 205.343 389 207V297C389 298.657 390.343 300 392 300H434C435.657 300 437 298.657 437 297V207C437 205.343 435.657 204 434 204H392ZM439 257C439 255.343 440.343 254 442 254H484C485.657 254 487 255.343 487 257V347C487 348.657 485.657 350 484 350H442C440.343 350 439 348.657 439 347V257ZM492 304C490.343 304 489 305.343 489 307V397C489 398.657 490.343 400 492 400H534C535.657 400 537 398.657 537 397V307C537 305.343 535.657 304 534 304H492Z"
			stroke="#D9D9D9" />
	</g>
</svg>