<svg width="400" height="400" viewBox="0 0 400 400" fill="none" xmlns="http://www.w3.org/2000/svg">
	<g>
		<path fill-rule="evenodd" clip-rule="evenodd"
			d="M-1 -4C-2.65685 -4 -4 -2.65685 -4 -1V171C-4 172.657 -2.65686 174 -1 174H194C195.657 174 197 172.657 197 171V-1C197 -2.65685 195.657 -4 194 -4H-1ZM202 -4C200.343 -4 199 -2.65685 199 -1V171C199 172.657 200.343 174 202 174H401C402.657 174 404 172.657 404 171V-1C404 -2.65685 402.657 -4 401 -4H202Z"
			stroke="#D9D9D9" />
		<path fill-rule="evenodd" clip-rule="evenodd"
			d="M26 179C26 177.343 27.3431 176 29 176H95C96.6569 176 98 177.343 98 179V221C98 222.657 96.6569 224 95 224H29C27.3431 224 26 222.657 26 221V179ZM227 176C225.343 176 224 177.343 224 179V221C224 222.657 225.343 224 227 224H293C294.657 224 296 222.657 296 221V179C296 177.343 294.657 176 293 176H227ZM301 176C299.343 176 298 177.343 298 179V221C298 222.657 299.343 224 301 224H367C368.657 224 370 222.657 370 221V179C370 177.343 368.657 176 367 176H301ZM103 176C101.343 176 100 177.343 100 179V221C100 222.657 101.343 224 103 224H169C170.657 224 172 222.657 172 221V179C172 177.343 170.657 176 169 176H103Z"
			fill="#9D9D9D" />
		<path fill-rule="evenodd" clip-rule="evenodd"
			d="M-24 179C-24 177.343 -22.6569 176 -21 176H21C22.6569 176 24 177.343 24 179V200V221C24 222.657 22.6569 224 21 224H-21C-22.6569 224 -24 222.657 -24 221V179ZM372 179C372 177.343 373.343 176 375 176H417C418.657 176 420 177.343 420 179V200V221C420 222.657 418.657 224 417 224H375C373.343 224 372 222.657 372 221V179ZM177 176C175.343 176 174 177.343 174 179V221C174 222.657 175.343 224 177 224H219C220.657 224 222 222.657 222 221V200V179C222 177.343 220.657 176 219 176H177Z"
			fill="#838383" />
	</g>
</svg>