{
	"asset": {
		"generator": "Khronos glTF Blender I/O v3.2.40",
		"version": "2.0"
	},
	"scene": 0,
	"scenes": [
		{
			"name": "Scene",
			"nodes": [0, 1]
		}
	],
	"nodes": [
		{
			"mesh": 0,
			"name": "Heritage Half",
			"translation": [0, 0, -0.07746999710798264]
		},
		{
			"mesh": 1,
			"name": "Heritage Square",
			"translation": [0, 0, 0.03937000036239624]
		}
	],
	"materials": [
		{
			"doubleSided": true,
			"name": "concrete",
			"normalTexture": {
				"index": 0
			},
			"pbrMetallicRoughness": {
				"baseColorTexture": {
					"index": 1
				},
				"metallicFactor": 0,
				"metallicRoughnessTexture": {
					"index": 2
				}
			}
		}
	],
	"meshes": [
		{
			"name": "Heritage Half",
			"primitives": [
				{
					"attributes": {
						"POSITION": 0,
						"NORMAL": 1,
						"TEXCOORD_0": 2
					},
					"indices": 3,
					"material": 0
				}
			]
		},
		{
			"name": "Heritage Square",
			"primitives": [
				{
					"attributes": {
						"POSITION": 4,
						"NORMAL": 5,
						"TEXCOORD_0": 6
					},
					"indices": 7,
					"material": 0
				}
			]
		}
	],
	"textures": [
		{
			"sampler": 0,
			"source": 0
		},
		{
			"sampler": 0,
			"source": 1
		},
		{
			"sampler": 0,
			"source": 2
		}
	],
	"images": [
		{
			"mimeType": "image/png",
			"name": "concrete_normal",
			"uri": "../../textures/concrete_normal.png"
		},
		{
			"mimeType": "image/png",
			"name": "concrete_spanish_brown",
			"uri": "../../textures/concrete_spanish_brown.png"
		},
		{
			"mimeType": "image/png",
			"name": "concrete_roughness",
			"uri": "../../textures/concrete_roughness.png"
		}
	],
	"accessors": [
		{
			"bufferView": 0,
			"componentType": 5126,
			"count": 222,
			"max": [0.07619999349117279, 0.030162500217556953, 0.03810001164674759],
			"min": [
				-0.07619999349117279, -0.030162500217556953, -0.03810000792145729
			],
			"type": "VEC3"
		},
		{
			"bufferView": 1,
			"componentType": 5126,
			"count": 222,
			"type": "VEC3"
		},
		{
			"bufferView": 2,
			"componentType": 5126,
			"count": 222,
			"type": "VEC2"
		},
		{
			"bufferView": 3,
			"componentType": 5123,
			"count": 756,
			"type": "SCALAR"
		},
		{
			"bufferView": 4,
			"componentType": 5126,
			"count": 225,
			"max": [0.07620000839233398, 0.030162500217556953, 0.07620000094175339],
			"min": [
				-0.07620000839233398, -0.030162500217556953, -0.07620000094175339
			],
			"type": "VEC3"
		},
		{
			"bufferView": 5,
			"componentType": 5126,
			"count": 225,
			"type": "VEC3"
		},
		{
			"bufferView": 6,
			"componentType": 5126,
			"count": 225,
			"type": "VEC2"
		},
		{
			"bufferView": 7,
			"componentType": 5123,
			"count": 756,
			"type": "SCALAR"
		}
	],
	"bufferViews": [
		{
			"buffer": 0,
			"byteLength": 2664,
			"byteOffset": 0
		},
		{
			"buffer": 0,
			"byteLength": 2664,
			"byteOffset": 2664
		},
		{
			"buffer": 0,
			"byteLength": 1776,
			"byteOffset": 5328
		},
		{
			"buffer": 0,
			"byteLength": 1512,
			"byteOffset": 7104
		},
		{
			"buffer": 0,
			"byteLength": 2700,
			"byteOffset": 8616
		},
		{
			"buffer": 0,
			"byteLength": 2700,
			"byteOffset": 11316
		},
		{
			"buffer": 0,
			"byteLength": 1800,
			"byteOffset": 14016
		},
		{
			"buffer": 0,
			"byteLength": 1512,
			"byteOffset": 15816
		}
	],
	"samplers": [
		{
			"magFilter": 9729,
			"minFilter": 9987
		}
	],
	"buffers": [
		{
			"byteLength": 17328,
			"uri": "../../bin/heritage/two_part.bin"
		}
	]
}
